<svg width="1000" height="1000" viewBox="0 0 1000 1000" fill="none" xmlns="http://www.w3.org/2000/svg">
<rect width="1000" height="1000" fill="#1E1E1E"/>
<circle cx="500" cy="500" r="402" fill="url(#paint0_radial_31_2)"/>
<path d="M894 500C894 282.4 717.6 106 500 106C282.4 106 106 282.4 106 500C106 717.6 282.4 894 500 894V915C270.802 915 85 729.198 85 500C85 270.802 270.802 85 500 85C729.198 85 915 270.802 915 500C915 729.198 729.198 915 500 915V894C717.6 894 894 717.6 894 500Z" fill="white"/>
<path fill-rule="evenodd" clip-rule="evenodd" d="M531.69 145.097C529.595 145.59 527.007 146.461 525.94 147.032C524.873 147.603 524 148.472 524 148.963C524 149.454 526.587 150.137 529.75 150.48C532.913 150.824 538.764 151.787 542.754 152.621C546.743 153.456 553.125 155.698 556.935 157.604C561.548 159.911 565.578 162.946 568.994 166.684C571.816 169.771 575.609 175.268 577.422 178.899C579.236 182.529 581.976 189.227 583.511 193.783C585.061 198.382 586.791 201.904 587.401 201.703C588.048 201.488 588.62 197.953 588.791 193.106C588.974 187.938 588.493 182.569 587.499 178.686C586.628 175.284 584.841 170.152 583.528 167.282C582.214 164.412 579.094 159.877 576.594 157.204C574.094 154.531 569.861 151.154 567.187 149.699C564.514 148.243 559.441 146.373 555.913 145.541C552.386 144.71 546.35 144.068 542.5 144.115C538.65 144.162 533.786 144.604 531.69 145.097ZM525.676 168.452C523.572 169.202 521.615 170.052 521.325 170.341C521.036 170.63 521.096 171.347 521.459 171.933C521.821 172.52 523.572 173 525.349 173C527.126 173 531.262 173.698 534.54 174.552C537.818 175.406 542.416 177.227 544.758 178.599C547.099 179.971 550.839 182.985 553.068 185.297C555.297 187.609 558.612 192.65 560.435 196.5C562.258 200.35 564.293 204.84 564.957 206.478C566.058 209.192 566.257 209.292 567.201 207.605C567.796 206.541 568.043 202.292 567.78 197.626C567.46 191.95 566.629 188.05 565.023 184.691C563.759 182.046 560.756 177.914 558.351 175.509C555.669 172.827 551.839 170.335 548.451 169.068C544.804 167.703 540.643 167.015 536.212 167.044C532.521 167.068 527.779 167.702 525.676 168.452ZM473.801 181.028C471.217 181.463 466.782 183.083 463.946 184.626C461.109 186.17 457.471 189.023 455.86 190.966C454.25 192.91 451.865 196.75 450.561 199.5C449.256 202.25 447.634 207.334 446.955 210.797C446.199 214.658 445.918 221.239 446.229 227.807C446.627 236.201 447.39 240.415 449.753 247.271C451.412 252.084 454.284 258.605 456.135 261.761C457.986 264.918 463.1 271.107 467.5 275.515C472.953 280.978 477.792 284.728 482.7 287.293C486.659 289.363 493.369 291.943 497.609 293.028C502.209 294.204 508.584 294.994 513.41 294.985C517.859 294.977 524.34 294.301 527.812 293.482C531.283 292.664 536.905 290.614 540.304 288.928C543.704 287.241 548.289 284.469 550.493 282.767C552.697 281.065 555.606 278.325 556.957 276.678C558.309 275.031 560.207 271.392 561.175 268.591C562.143 265.791 562.949 261.385 562.967 258.799C562.985 256.214 562.491 251.714 561.87 248.799C561.248 245.885 559.693 241.126 558.413 238.224C557.134 235.323 554.647 230.943 552.887 228.492C551.126 226.041 548.905 223.787 547.95 223.484C546.984 223.178 544.058 224.199 541.357 225.786C538.686 227.356 536.371 229.313 536.213 230.135C536.054 230.957 537.353 233.401 539.098 235.565C540.843 237.729 543.421 241.975 544.826 245C546.464 248.527 547.381 252.252 547.383 255.384C547.384 259.661 546.969 260.638 544.037 263.258C540.946 266.02 540.254 266.21 535.017 265.735C531.897 265.452 526.122 263.867 522.184 262.213C518.246 260.558 511.329 257.038 506.812 254.39C502.295 251.742 495.911 247.177 492.626 244.245C489.341 241.314 483.784 235.672 480.279 231.708C476.773 227.743 472.29 221.252 470.317 217.282C467.311 211.238 466.821 209.369 467.302 205.782C467.721 202.659 468.741 200.728 471.069 198.647C474.057 195.977 474.717 195.818 481.381 196.16C487.29 196.463 490.077 197.276 497.783 200.944C505.763 204.743 507.251 205.162 508.388 203.931C509.115 203.144 510.388 200.7 511.217 198.5C512.046 196.3 512.528 193.95 512.288 193.277C512.048 192.605 509.297 190.507 506.176 188.615C503.054 186.724 497.8 184.29 494.5 183.208C491.2 182.125 486.25 181.014 483.5 180.738C480.75 180.462 476.385 180.592 473.801 181.028ZM531.643 189.028C530.071 189.499 527.871 190.698 526.755 191.692C525.638 192.687 524.127 194.909 523.398 196.632C522.44 198.893 522.34 200.698 523.036 203.125C523.566 204.974 524 206.804 524 207.192C524 207.579 518.488 212.501 511.75 218.128C505.012 223.755 499.358 228.458 499.186 228.578C499.013 228.698 499.183 230.459 499.564 232.492C499.946 234.525 501.258 237.351 502.48 238.772C504.261 240.843 505.639 241.37 509.418 241.428C514.134 241.5 514.134 241.5 522.388 227.5C530.642 213.5 530.642 213.5 535.571 212.962C538.282 212.666 541.454 211.894 542.62 211.247C543.785 210.599 545.473 208.523 546.37 206.633C547.266 204.744 548 202.235 548 201.059C548 199.883 547.12 197.195 546.044 195.086C544.643 192.341 542.935 190.791 540.024 189.626C537.788 188.732 535.631 188.039 535.23 188.086C534.828 188.133 533.214 188.557 531.643 189.028ZM344.876 257.382C343.432 258.135 330.288 268.043 315.665 279.4C301.043 290.756 288.387 301.037 287.54 302.246C286.693 303.456 286 305.656 286 307.136C286 309.117 293.486 319.684 314.358 347.164C342.716 384.5 342.716 384.5 339.866 388C338.299 389.925 335.051 393.707 332.648 396.404C328.279 401.309 328.279 401.309 316.33 385.404C309.758 376.657 304.073 368.984 303.696 368.354C303.29 367.675 305.046 365.655 308.005 363.398C310.752 361.303 313 359.31 313 358.969C313 358.628 310.94 355.683 308.422 352.425C305.904 349.166 303.458 346.102 302.988 345.616C302.499 345.111 298.343 347.639 293.316 351.498C288.467 355.22 283.712 359.156 282.75 360.244C281.788 361.331 281 363.679 281 365.461C281 367.513 282.166 370.313 284.183 373.1C285.933 375.52 293.991 386.115 302.09 396.643C316.815 415.787 316.815 415.787 313.257 421.643C311.3 424.865 307.103 432.9 303.93 439.5C300.757 446.1 296.494 456 294.455 461.5C292.417 467 289.253 477.416 287.424 484.647C285.594 491.878 283.353 503.128 282.444 509.647C281.215 518.454 280.915 525.869 281.277 538.5C281.677 552.443 282.224 557.249 284.319 565.228C285.724 570.578 288.723 579.578 290.984 585.228C293.246 590.878 297.638 600 300.745 605.5C303.852 611 313.697 626.416 322.623 639.757C331.548 653.099 341.361 669.074 344.43 675.257C347.796 682.039 350.956 690.27 352.394 696C354.223 703.29 354.933 709.571 355.443 723C355.809 732.625 356.755 745.725 357.547 752.112C358.338 758.499 360.116 767.627 361.498 772.396C362.88 777.166 365.307 783.927 366.892 787.421C368.476 790.916 371.567 796.413 373.761 799.637C375.955 802.862 381.328 809.55 385.701 814.5C393.652 823.5 393.652 823.5 390.593 830C387.676 836.2 387.518 837.204 387.16 851.783C386.897 862.496 387.158 867.967 388.033 870.08C388.72 871.738 390.546 873.748 392.091 874.547C393.636 875.346 396.266 876 397.935 876C399.873 876 402.148 874.947 404.234 873.084C407.5 870.168 407.5 870.168 408 855.334C408.379 844.102 408.903 839.771 410.161 837.5C411.074 835.85 413.099 833.286 414.661 831.803C416.222 830.32 419.173 828.407 421.218 827.553C424.464 826.197 434.207 826 498 826C561.742 826 571.539 826.198 574.782 827.551C576.827 828.404 579.999 830.541 581.832 832.301C583.665 834.06 585.684 836.4 586.318 837.5C586.98 838.647 587.692 846.04 587.986 854.834C588.5 870.167 588.5 870.167 591.766 873.084C593.852 874.947 596.127 876 598.065 876C599.734 876 602.339 875.359 603.855 874.575C605.371 873.791 607.148 871.97 607.805 870.528C608.541 868.913 609 862.777 609 854.558C609 843.94 608.588 839.911 606.983 834.855C605.873 831.36 604.343 827.391 603.582 826.035C602.257 823.672 602.523 823.209 609.993 814.887C614.279 810.112 619.691 803.401 622.018 799.974C624.345 796.547 627.767 790.457 629.623 786.439C631.479 782.422 634.1 774.585 635.447 769.024C636.793 763.462 638.371 753.644 638.953 747.206C639.534 740.768 640.428 727.85 640.939 718.5C641.701 704.556 642.339 700.062 644.487 693.5C645.928 689.1 649.364 681.003 652.124 675.507C654.883 670.011 664.87 653.811 674.317 639.507C684.189 624.559 694.501 607.547 698.567 599.5C702.458 591.8 707.068 581 708.811 575.5C710.554 570 712.709 561.225 713.601 556C714.86 548.623 715.108 542.366 714.71 528C714.36 515.348 713.533 505.957 712.095 498.294C710.938 492.13 708.437 481.96 706.537 475.692C704.638 469.425 700.835 458.993 698.088 452.51C695.341 446.028 690.33 435.897 686.954 429.998C683.577 424.099 677.21 414.373 672.804 408.386C667.941 401.776 658.616 391.366 649.065 381.882C633.336 366.265 633.336 366.265 635.928 363.088C638.521 359.912 638.521 359.912 648.51 367.068C654.005 371.004 660.3 375.064 662.5 376.09C664.7 377.116 668.549 377.966 671.054 377.978C673.992 377.992 677.463 377.075 680.84 375.393C685.656 372.992 687.239 371.145 700.758 352.143C708.835 340.789 716.244 329.942 717.222 328.039C718.308 325.924 718.991 322.421 718.978 319.039C718.965 315.798 718.188 311.841 717.104 309.5C716.086 307.3 713.958 304.315 712.376 302.866C710.794 301.417 696.357 290.935 680.292 279.572C655.234 261.847 650.311 258.75 645.637 257.769C641.506 256.903 639.238 256.912 636.254 257.806C634.089 258.454 630.786 260.017 628.914 261.279C626.892 262.642 619.342 272.284 610.317 285.031C601.053 298.114 594.662 308.135 593.942 310.706C593.28 313.073 593.046 316.806 593.411 319.212C593.768 321.57 595.07 325.3 596.304 327.5C597.877 330.302 601.834 333.838 609.524 339.311C615.561 343.607 620.595 347.432 620.712 347.811C620.828 348.19 619.864 349.797 618.569 351.382C616.215 354.264 616.215 354.264 607.857 349.243C603.261 346.482 595.723 342.335 591.106 340.028C586.489 337.72 578.17 334.063 572.618 331.899C567.067 329.736 558.02 326.676 552.513 325.099C547.006 323.523 537.887 321.427 532.25 320.442C522 318.652 522 318.652 522 315.294C522 313.447 521.38 310.451 520.621 308.636C519.863 306.821 518.035 304.386 516.56 303.226C515.085 302.066 511.318 300.621 508.189 300.015C505.06 299.409 498.675 297.758 494 296.346C489.325 294.935 483.404 292.718 480.843 291.42C478.281 290.122 473.106 286.724 469.343 283.868C463.954 279.779 461.544 278.592 458 278.282C454.788 278.001 452.641 278.429 450.5 279.778C448.849 280.817 446.277 283.913 444.782 286.658C443.288 289.404 441.344 294.316 440.461 297.575C439.535 300.993 438.731 308.555 438.56 315.447C438.265 327.393 438.265 327.393 428.382 331.148C422.947 333.214 417.569 334.925 416.431 334.952C414.871 334.988 407.022 325.555 384.503 296.579C368.081 275.448 353.578 257.673 352.275 257.079C350.972 256.486 349.365 256.003 348.703 256.006C348.041 256.01 346.319 256.629 344.876 257.382ZM638.706 281.25C637.388 283.037 631.235 291.629 625.033 300.343C615.624 313.562 613.984 316.397 615.129 317.461C615.883 318.163 628.398 327.168 642.94 337.473C657.483 347.778 669.884 356.402 670.499 356.638C671.115 356.874 677.572 348.672 684.85 338.41C692.128 328.148 698.176 319.411 698.291 318.994C698.406 318.577 685.76 309.183 670.188 298.118C654.616 287.053 641.702 278 641.489 278C641.276 278 640.024 279.463 638.706 281.25ZM327.47 293.33C317.553 301.123 309.314 307.95 309.162 308.5C309.009 309.05 322.374 327.08 338.862 348.567C368.84 387.634 368.84 387.634 356.113 400.567C348.017 408.793 341.098 416.957 337.1 423C333.644 428.225 327.492 439.25 323.431 447.5C319.369 455.75 314.048 468.575 311.607 476C309.166 483.425 306.22 494.417 305.06 500.426C303.9 506.435 302.52 516.638 301.992 523.098C301.374 530.662 301.379 538.343 302.007 544.672C302.543 550.077 303.64 557.249 304.446 560.609C305.252 563.969 307.035 569.703 308.408 573.352C309.782 577.001 313.274 584.597 316.168 590.233C319.063 595.868 329.183 612.095 338.657 626.293C348.132 640.491 358.386 656.999 361.444 662.978C364.503 668.957 368.555 678.496 370.448 684.175C372.342 689.854 374.354 698.325 374.919 703C375.484 707.675 376.4 720.5 376.956 731.5C377.554 743.364 378.735 755.172 379.859 760.527C380.9 765.492 382.788 772.017 384.054 775.027C385.319 778.037 388.221 783.425 390.503 787C392.784 790.575 398.027 797.074 402.153 801.441C409.654 809.383 409.654 809.383 415.577 807.441C421.233 805.588 424.977 805.5 498.5 805.5C570.956 805.5 575.815 805.61 580.833 807.358C586.165 809.216 586.165 809.216 589.213 806.358C590.889 804.786 595.076 800.229 598.517 796.231C601.957 792.233 606.357 785.933 608.294 782.231C610.231 778.529 612.748 772.639 613.889 769.142C615.03 765.644 616.637 757.994 617.462 752.142C618.287 746.289 619.401 732.275 619.938 721C620.734 704.28 621.386 698.748 623.473 691C624.988 685.377 628.844 675.787 632.922 667.5C637.29 658.624 646.057 644.039 656.877 627.65C666.264 613.432 676.605 596.557 679.858 590.15C683.11 583.742 686.897 575.35 688.272 571.5C689.646 567.65 691.568 560.675 692.541 556C693.79 549.998 694.29 543.238 694.24 533C694.202 525.025 693.458 513.816 692.588 508.091C691.717 502.366 689.814 493.141 688.358 487.591C686.903 482.041 684.249 473.647 682.46 468.938C680.672 464.229 677.092 456.162 674.505 451.011C671.918 445.86 667.56 438.03 664.819 433.612C662.079 429.193 657.011 421.961 653.558 417.539C650.105 413.118 644.016 406.006 640.027 401.735C636.038 397.464 628.663 390.52 623.637 386.304C618.612 382.087 609.775 375.506 604 371.678C598.225 367.85 587.2 361.657 579.5 357.915C571.8 354.173 560.601 349.493 554.614 347.515C548.627 345.537 537.827 342.816 530.614 341.468C523.401 340.12 515.289 338.749 512.587 338.423C509.026 337.992 506.895 337.048 504.837 334.991C502.536 332.69 502 331.277 502 327.511C502 324.958 501.562 322.05 501.027 321.051C500.492 320.051 498.355 318.916 496.277 318.528C494.2 318.141 488.45 316.523 483.5 314.934C478.55 313.345 471.397 310.225 467.604 308.002C463.811 305.778 460.474 304.193 460.188 304.479C459.902 304.765 459.63 309.387 459.584 314.749C459.538 320.112 459.881 327.452 460.346 331.059C461.147 337.272 461.055 337.782 458.587 340.715C456.679 342.981 454.042 344.393 448.741 345.983C444.758 347.178 434.595 350.874 426.155 354.197C413.313 359.252 410.605 360.015 409.559 358.869C408.872 358.116 394.657 339.838 377.971 318.25C361.285 296.662 347.153 279.036 346.566 279.08C345.98 279.123 337.386 285.536 327.47 293.33ZM333.006 300.037C326.685 304.946 321.369 309.394 321.193 309.922C321.017 310.45 323.193 313.833 326.028 317.441C328.863 321.048 331.404 324 331.674 324C331.944 324 337.528 319.847 344.083 314.771C350.637 309.695 356 305.146 356 304.663C356 304.179 353.711 300.907 350.914 297.392C348.117 293.876 345.529 291.025 345.164 291.055C344.799 291.086 339.328 295.127 333.006 300.037ZM349.2 321.635C336.9 331.18 336.9 331.18 339.45 334.59C340.852 336.465 343.178 339.575 344.619 341.5C346.059 343.425 347.663 345 348.182 345C348.702 345 354.161 341.115 360.314 336.367C366.466 331.619 371.89 327.382 372.366 326.951C372.842 326.52 370.817 323.005 367.866 319.139C364.915 315.273 362.275 312.106 362 312.101C361.725 312.096 355.965 316.386 349.2 321.635ZM366.2 343.635C353.9 353.18 353.9 353.18 356.45 356.59C357.852 358.465 360.178 361.575 361.619 363.5C363.059 365.425 364.663 367 365.182 367C365.702 367 371.161 363.115 377.314 358.367C383.466 353.619 388.89 349.382 389.366 348.951C389.842 348.52 387.817 345.005 384.866 341.139C381.915 337.273 379.275 334.106 379 334.101C378.725 334.096 372.965 338.386 366.2 343.635ZM488.792 520.404C486.203 521.1 482.271 522.926 480.055 524.462C477.839 525.998 474.429 529.659 472.478 532.599C470.527 535.538 457.641 562.369 443.842 592.222C430.043 622.075 417.871 649.2 416.793 652.5C415.442 656.636 414.988 660.091 415.331 663.622C415.605 666.44 416.726 670.49 417.823 672.622C418.92 674.755 421.096 677.686 422.658 679.136C424.221 680.586 427.075 682.611 429 683.636C432.06 685.266 435.358 685.54 455.25 685.818C478 686.135 478 686.135 478.008 707.318C478.013 718.968 478.461 732.378 479.004 737.118C479.547 741.857 480.667 747.353 481.494 749.33C482.32 751.308 484.459 754.592 486.248 756.63C488.037 758.667 491.438 761.191 493.806 762.238C496.252 763.32 500.355 764.139 503.306 764.135C506.163 764.13 510.171 763.424 512.213 762.565C514.255 761.707 517.533 759.593 519.498 757.868C521.463 756.142 524.813 751.754 526.944 748.115C529.074 744.477 542.182 716.75 556.072 686.5C580.304 633.729 581.347 631.207 581.794 624.276C582.205 617.906 581.939 616.396 579.552 611.517C578.063 608.474 575.386 604.871 573.604 603.511C571.821 602.152 568.424 600.355 566.056 599.52C562.719 598.343 556.949 598 540.455 598C519.161 598 519.161 598 518.764 569.25C518.432 545.241 518.084 539.749 516.655 535.944C515.714 533.438 513.607 529.766 511.973 527.784C510.339 525.801 507.089 523.284 504.751 522.19C502.413 521.096 498.925 519.962 497 519.67C495.075 519.378 491.382 519.708 488.792 520.404ZM490.493 543.42C489.014 545.359 476.334 571.82 462.315 602.223C448.296 632.625 436.592 658.896 436.306 660.602C435.909 662.971 436.225 663.908 437.643 664.57C438.664 665.046 452.325 665.584 468 665.766C493.012 666.056 496.653 666.298 497.75 667.739C498.688 668.972 499.011 677.393 499.044 701.441C499.068 719.074 499.467 735.467 499.932 737.872C500.396 740.276 501.348 742.597 502.047 743.029C502.747 743.461 503.836 743.616 504.468 743.374C505.101 743.131 507.025 740.585 508.744 737.716C510.462 734.847 522.746 708.875 536.04 680C549.334 651.125 560.671 626.224 561.233 624.664C562.051 622.397 561.922 621.493 560.594 620.164C559.144 618.713 555.202 618.436 529.744 618C500.556 617.5 500.556 617.5 499.293 615C498.352 613.138 498.022 603.952 498 579C497.978 554.437 497.641 544.854 496.735 543.079C496.056 541.747 494.979 540.486 494.341 540.276C493.704 540.066 491.972 541.481 490.493 543.42Z" fill="white"/>
<path d="M608.516 865.5C608.516 868.025 609.795 870.81 612.517 872.489C615.1 874.083 620.633 875.631 630.677 872.074L637.354 890.926C623.398 895.868 611.181 895.166 602.015 889.511C592.987 883.94 588.516 874.475 588.516 865.5H608.516Z" fill="white"/>
<path d="M407.516 865C407.516 873.735 403.179 882.96 394.398 888.396C385.475 893.919 373.623 894.576 360.168 889.796L366.863 870.95C376.394 874.337 381.542 872.832 383.872 871.39C386.345 869.859 387.516 867.315 387.516 865H407.516Z" fill="white"/>
<defs>
<radialGradient id="paint0_radial_31_2" cx="0" cy="0" r="1" gradientUnits="userSpaceOnUse" gradientTransform="translate(500 595) rotate(179.248) scale(190.516 353.504)">
<stop stop-color="#0B8EFD"/>
<stop offset="1" stop-color="#002D71"/>
</radialGradient>
</defs>
</svg>
